<svg xmlns="http://www.w3.org/2000/svg" width="151.207" height="151.209" viewBox="0 0 151.207 151.209"><defs><style>.a{stroke:#000001;}</style></defs><g transform="translate(0.501 0.5)"><path class="a" d="M359.94,128.776a4,4,0,1,0-5.662,0A4,4,0,0,0,359.94,128.776Z" transform="translate(-249.515 -86.169)"/><path class="a" d="M321.546,195.538a2.194,2.194,0,0,0,1.556-.645L335.091,182.9a2.2,2.2,0,1,0-3.112-3.112L319.99,191.782a2.2,2.2,0,0,0,1.556,3.756Z" transform="translate(-225.658 -126.593)"/><path class="a" d="M268.974,219.742a4,4,0,1,0-5.662,0A4,4,0,0,0,268.974,219.742Z" transform="translate(-185.235 -150.449)"/><path class="a" d="M212.886,124.115a36.335,36.335,0,1,0-10.642-25.693,36.222,36.222,0,0,0,10.642,25.693ZM216,75.841a31.934,31.934,0,1,1-9.354,22.581A31.835,31.835,0,0,1,216,75.841Z" transform="translate(-142.91 -43.886)"/><path class="a" d="M39.038,142l31.37-39.1a54.549,54.549,0,0,0,63.824-86.923A54.555,54.555,0,0,0,47.309,79.8l-39.1,31.37A21.931,21.931,0,1,0,39.038,142ZM60.217,19.085a50.136,50.136,0,1,1,70.9,70.9A50.2,50.2,0,0,1,71.1,98.265a2.151,2.151,0,0,0-.324-.185A50.7,50.7,0,0,1,52.125,79.427a2.229,2.229,0,0,0-.184-.322,50.2,50.2,0,0,1,8.276-60.02ZM9.536,140.669a17.538,17.538,0,0,1,1.426-26.07L49.533,83.655a55.343,55.343,0,0,0,17.018,17.018L35.606,139.244A17.541,17.541,0,0,1,9.536,140.669Z"/></g></svg>